# xmcd
#
# Track frame offsets: 
#        150
#        14615
#        31892
#        49152
#        66070
#        80300
#        95720
#        111105
#        127622
#        142782
#        159190
#        175310
#        191000
#        205915
#        219905
#        236370
#        252477
#        267100
#        283905
#
# Disc length: 3979 seconds
#
# Revision: 2
# Processed by: cddbd v1.5.2PL0 Copyright (c) Steve Scherf et al.
# Submitted via: ExactAudioCopy v1.0b3
#
DISCID=030f8913
DTITLE=浅丘ルリ子 - RURIKO ASAOKA THE ULTIMATE 60'S RECORDINGS
DYEAR=2003
DGENRE=Pop
TTITLE0=丘は花ざかり
TTITLE1=東京は二人の町
TTITLE2=浅丘ルリ子/石原裕次郎 - 夕陽の丘
TTITLE3=霧に消えた人
TTITLE4=別れのビギン
TTITLE5=教えて教えて
TTITLE6=浅丘ルリ子/浜田光夫 - 伊豆の虹
TTITLE7=思い出は小雨に濡れて
TTITLE8=心の灯を消さないで
TTITLE9=丘の口笛
TTITLE10=面影遠く
TTITLE11=波止場のドラマ
TTITLE12=浅丘ルリ子/石原裕次郎 - 東京さすらい歌
TTITLE13=明日も愛す
TTITLE14=悲恋
TTITLE15=東京の灯
TTITLE16=こぶしの花咲く頃
TTITLE17=浅丘ルリ子/浜田光夫 - 姉弟
TTITLE18=青空さんゴメンナサイ
EXTD=
EXTT0=
EXTT1=
EXTT2=
EXTT3=
EXTT4=
EXTT5=
EXTT6=
EXTT7=
EXTT8=
EXTT9=
EXTT10=
EXTT11=
EXTT12=
EXTT13=
EXTT14=
EXTT15=
EXTT16=
EXTT17=
EXTT18=
PLAYORDER=
